<svg xmlns="http://www.w3.org/2000/svg" id="Layer_2" data-name="Layer 2" viewBox="0 0 1213.23 351.46"><defs><style>.cls-1{fill:#fff}</style></defs><g id="Layer_1-2" data-name="Layer 1"><path d="M1195.93 0H0v351.46h1213.23V0h-17.3z"/><path d="M915.01 17.02v183.9c0 73.02-58.61 133.28-131.62 133.53-73.17.25-132.55-58.98-132.55-132.09V17.02h123.58v158.71c0 4.69 3.8 8.51 8.5 8.51s8.51-3.82 8.51-8.51V17.02h123.58ZM638.43 149.11c0 72.95-59.14 132.09-132.09 132.09-.71 0-1.42-.02-2.13-.03v53.28H370.05V162.3h125.49c4.7 0 8.51-3.8 8.51-8.5s-3.81-8.5-8.51-8.5H370.05V17.01h134.16v.03c.71-.01 1.42-.03 2.13-.03 72.95 0 132.09 59.15 132.09 132.1ZM1062.21 153.8c0 4.7 3.8 8.5 8.5 8.5h125.5v118.89h-130.03v53.26H932.02V17.02h264.19V145.3h-125.5a8.5 8.5 0 0 0-8.5 8.5ZM342.53 229.58c40.07-29.31 4.86-105.5-46.88-87.1 19.3-57.71-61.3-85.93-92.13-38.88-3.57-19.64-26.99-44.74-63.3-44.74h.01c-54.96-.19-103.5 53.39-73.19 111.68-37.3 0-63.68 35.96-56.87 68.16 10.19 60.67 90.83 66.37 122.57 35.19 16.55 32.13 89.43 26.6 90.55-10.27 30.73 24.84 81.02 1.56 75.37-37.4 12.04 9.8 29.64 11.1 43.87 3.36Zm-196.72-1.02c-26.13 3.5-34.65-61.65-8.45-64.92 26.13-3.5 34.65 61.65 8.45 64.92Zm68.09-8.13c-26.13 3.5-34.65-61.65-8.45-64.92 26.13-3.49 34.65 61.65 8.45 64.92ZM354.05 36.37c0 11.34-8.97 19.52-19.41 19.52s-19.52-8.18-19.52-19.52 8.97-19.36 19.52-19.36 19.41 8.18 19.41 19.36Zm-35.03 0c0 9.39 6.8 16.2 15.61 16.2s15.51-6.8 15.51-16.2-6.8-16.09-15.51-16.09-15.61 6.91-15.61 16.09Zm25.74 3.64c-1 5.12-4.75 8.28-9.49 8.28-6.91 0-11.39-5.17-11.39-11.97s4.27-11.81 11.24-11.81c4.91 0 8.86 2.85 9.6 8.07h-3.43c-.58-2.85-2.95-4.75-6.12-4.75-4.75 0-7.38 3.69-7.38 8.44s2.9 8.71 7.49 8.71c3.22 0 5.59-2.01 6.01-4.96h3.48Z" class="cls-1"/></g></svg>