<svg width="567" height="381" viewBox="0 0 567 381" fill="none" xmlns="http://www.w3.org/2000/svg">
<path d="M538.995 275.486C603.769 228.189 546.852 105.244 463.214 134.935C494.412 41.8109 364.122 -3.72675 314.286 72.1962C308.515 40.5038 270.656 0.000812972 211.961 0.000812972C123.134 -0.305783 44.6693 86.1544 93.6655 180.215C33.37 180.215 -9.2733 238.242 1.73507 290.202C18.2072 388.103 148.562 397.301 199.87 346.987C226.623 398.834 344.433 389.911 346.244 330.415C395.919 370.498 477.213 332.932 468.08 270.064C487.542 285.878 515.993 287.975 538.995 275.486ZM220.997 273.84C178.758 279.488 164.986 174.357 207.338 169.081C249.577 163.433 263.35 268.563 220.997 273.84ZM331.065 260.721C288.826 266.368 275.053 161.238 317.406 155.962C359.645 150.33 373.417 255.444 331.065 260.721Z" fill="white"/>
</svg>
