<svg width="25" height="25" viewBox="0 0 25 25" fill="none" xmlns="http://www.w3.org/2000/svg">
<path d="M10.9019 18.4804C10.9019 17.5978 11.6188 16.8809 12.4987 16.8809C13.3798 16.8809 14.0981 17.5978 14.0981 18.4804C14.0981 19.3629 13.3798 20.0798 12.4987 20.0798C11.6188 20.0798 10.9019 19.3629 10.9019 18.4804ZM10.9019 12.5002C10.9019 11.6177 11.6188 10.9007 12.4987 10.9007C13.3798 10.9007 14.0981 11.6177 14.0981 12.5002C14.0981 13.3827 13.3798 14.0997 12.4987 14.0997C11.6188 14.0997 10.9019 13.3827 10.9019 12.5002ZM10.9019 6.51963C10.9019 5.63711 11.6188 4.92015 12.4987 4.92015C13.3798 4.92015 14.0981 5.63711 14.0981 6.51963C14.0981 7.40215 13.3798 8.11911 12.4987 8.11911C11.6188 8.11911 10.9019 7.40215 10.9019 6.51963Z" fill="white"/>
</svg>
